<svg xmlns="http://www.w3.org/2000/svg" viewBox="0 0 231 232" width="231" height="232" role="img" aria-label="Sales Co-Pilot">
  <title>Sales Co-Pilot</title>
  <defs>
    <linearGradient id="cpGradV2" x1="8%" y1="0%" x2="92%" y2="100%">
      <stop offset="0" stop-color="#0E8FA6"/>
      <stop offset=".28" stop-color="#6E45D9"/>
      <stop offset=".62" stop-color="#8B3FE0"/>
      <stop offset="1" stop-color="#A43CD0"/>
    </linearGradient>
  </defs>
  <path fill="url(#cpGradV2)" d="M96.7269 1.35741C120.125 -2.28559 146.452 1.51855 166.179 11.3945C193.759 25.2005 215.681 50.3467 225.345 79.2617C232.885 101.824 232.885 129.79 225.345 152.352C213.858 186.719 186.332 214.338 152.153 225.789C124.028 235.212 90.3734 233.069 64.7054 220.219C31.6415 203.668 7.64759 171.73 1.4115 135.971C-0.470494 125.178 -0.47048 106.436 1.4115 95.6426C9.77948 47.6567 49.0851 8.77553 96.7269 1.35741ZM64.2494 125.299C46.6344 120.711 29.4365 126.327 27.3695 137.343C25.2227 148.789 35.1006 167.979 51.0834 183.412C62.3161 194.259 78.6405 203.808 85.9418 203.802C102.003 203.789 107.275 173.733 95.3861 149.968C89.4231 138.049 77.7783 128.823 64.2494 125.299ZM180.443 124.076C165.841 123.704 155.677 127.569 144.773 137.638C130.54 150.781 124.529 178.22 132.37 194.249C137.41 204.55 143.638 206.135 155.928 200.245C165.956 195.44 174.042 189.483 182.507 180.665C190.667 172.165 194.173 167.248 199.517 156.807C202.889 150.217 203.36 148.436 203.399 142.134C203.451 133.45 201.725 130.513 194.39 126.807C190.368 124.775 187.758 124.263 180.443 124.076ZM119.235 94.875C117.15 86.6169 116.525 85.1026 115.745 86.4189C115.509 86.8171 114.455 90.4949 113.402 94.5918C108.782 112.567 101.956 119.746 84.9994 124.466C82.0916 125.275 79.8456 126.338 80.0082 126.827C80.1716 127.316 82.841 128.432 85.9408 129.308C102.481 133.977 108.96 141.108 113.541 159.689C114.569 163.859 115.784 167.146 116.243 166.995C116.7 166.842 118.001 163.05 119.132 158.569C123.534 141.136 129.367 134.736 145.573 129.558C148.958 128.477 151.846 127.232 151.995 126.792C152.141 126.352 149.37 125.066 145.838 123.935C129.109 118.574 123.736 112.704 119.235 94.875ZM127.578 22.8887C110.359 20.4937 92.5389 23.2436 76.2689 30.8056C65.6622 35.7355 60.0952 39.5904 51.0834 48.2412C42.1874 56.7812 36.2092 64.9306 31.3802 75.0986C27.2264 83.8463 26.165 89.5162 27.8988 93.7012C31.0108 101.216 41.0974 100.232 80.9584 88.5254C110.521 79.8435 123.54 80.1542 156.482 90.333C169.738 94.428 182.367 97.4344 190.203 98.3594C197.302 99.1973 201.317 97.7333 202.99 93.6943C207.697 82.3262 188.7 52.202 167.943 38.124C156.891 30.6281 141.524 24.8287 127.578 22.8887Z"/>
</svg>
