<svg width="21" height="20" viewBox="0 0 21 20" fill="none" xmlns="http://www.w3.org/2000/svg">
<g clip-path="url(#clip0_56385_24783)">
<path fill-rule="evenodd" clip-rule="evenodd" d="M5.65652 2.45272C8.86849 0.757763 12.0824 0.892975 15.2943 2.45329C15.6514 2.6267 16.0175 2.74697 16.2285 2.29822C16.4135 1.90507 16.1376 1.69063 15.8015 1.52062C14.0977 0.658672 12.2932 0.198576 10.3694 0.203493C8.51581 0.188364 6.78624 0.640518 5.16843 1.51457C4.82634 1.69914 4.50391 1.9219 4.76072 2.35231C4.98784 2.73298 5.32653 2.6267 5.65652 2.45272Z" fill="white"/>
<path fill-rule="evenodd" clip-rule="evenodd" d="M4.61658 16.5859C4.3176 16.5859 4.07422 16.8233 4.07422 17.1151C4.07422 17.4067 4.3176 17.644 4.61658 17.644C4.91574 17.644 5.15893 17.4067 5.15893 17.1151C5.15893 16.8233 4.91574 16.5859 4.61658 16.5859Z" fill="white"/>
<path fill-rule="evenodd" clip-rule="evenodd" d="M11.6744 7.69299C11.6744 7.40139 11.4312 7.16406 11.132 7.16406C10.833 7.16406 10.5898 7.40139 10.5898 7.69299C10.5898 7.9846 10.833 8.22192 11.132 8.22192C11.4312 8.22192 11.6744 7.9846 11.6744 7.69299Z" fill="white"/>
<path fill-rule="evenodd" clip-rule="evenodd" d="M17.5033 15.3789C17.2041 15.3789 16.9609 15.6162 16.9609 15.9078C16.9609 16.1994 17.2041 16.4368 17.5033 16.4368C17.8023 16.4368 18.0455 16.1994 18.0455 15.9078C18.0455 15.6162 17.8023 15.3789 17.5033 15.3789Z" fill="white"/>
<path fill-rule="evenodd" clip-rule="evenodd" d="M13.425 13.2324C13.1258 13.2324 12.8828 13.4698 12.8828 13.7614C12.8828 14.053 13.1258 14.2903 13.425 14.2903C13.724 14.2903 13.9673 14.053 13.9673 13.7614C13.9673 13.4698 13.724 13.2324 13.425 13.2324Z" fill="white"/>
<path fill-rule="evenodd" clip-rule="evenodd" d="M13.425 13.2324C13.1258 13.2324 12.8828 13.4698 12.8828 13.7614C12.8828 14.053 13.1258 14.2903 13.425 14.2903C13.724 14.2903 13.9673 14.053 13.9673 13.7614C13.9673 13.4698 13.724 13.2324 13.425 13.2324Z" fill="white"/>
<path fill-rule="evenodd" clip-rule="evenodd" d="M19.9564 9.75195C19.6573 9.75195 19.4141 9.98928 19.4141 10.2809C19.4141 10.5727 19.6573 10.8098 19.9564 10.8098C20.2554 10.8098 20.4988 10.5727 20.4988 10.2809C20.4988 9.98928 20.2554 9.75195 19.9564 9.75195Z" fill="white"/>
<path fill-rule="evenodd" clip-rule="evenodd" d="M19.6978 8.54846C19.6978 8.25686 19.4546 8.01953 19.1554 8.01953C18.8565 8.01953 18.6133 8.25686 18.6133 8.54846C18.6133 8.84025 18.8565 9.07739 19.1554 9.07739C19.4546 9.07739 19.6978 8.84025 19.6978 8.54846Z" fill="white"/>
<path fill-rule="evenodd" clip-rule="evenodd" d="M3.52283 3.96997C3.8218 3.96997 4.06518 3.73283 4.06518 3.44104C4.06518 3.14944 3.8218 2.91211 3.52283 2.91211C3.22385 2.91211 2.98047 3.14944 2.98047 3.44104C2.98047 3.73283 3.22385 3.96997 3.52283 3.96997Z" fill="white"/>
<path fill-rule="evenodd" clip-rule="evenodd" d="M1.51456 8.61914C1.31202 8.61914 1.1371 8.72939 1.04406 8.89013L1.04217 8.88918C1.04009 8.89448 1.03801 8.89959 1.03593 8.90488C1.01683 8.94024 1.00151 8.9775 0.991109 9.01702C0.528933 10.2141 0.5 11.4565 0.5 11.4565C0.5 11.7483 0.743191 11.9854 1.04217 11.9854C1.29841 11.9854 1.51248 11.8107 1.56883 11.5773L1.56978 11.5771C1.56978 11.576 1.56978 11.5751 1.56996 11.5741C1.57866 11.5363 1.58453 11.4972 1.58453 11.4565C1.58453 11.4382 1.58074 11.4206 1.57885 11.4026C1.65109 10.2144 2.01285 9.35647 2.01285 9.35647C2.04103 9.29255 2.05691 9.22201 2.05691 9.14807C2.05691 8.85647 1.81353 8.61914 1.51456 8.61914Z" fill="white"/>
<path fill-rule="evenodd" clip-rule="evenodd" d="M7.76397 5.33688C3.30787 7.07193 2.1581 11.2232 3.36895 15.2826C3.37557 15.3181 3.38578 15.3523 3.39921 15.385C3.47995 15.5783 3.67417 15.7152 3.90128 15.7152C3.93381 15.7152 3.96539 15.7113 3.9964 15.706C4.06202 15.6946 4.12311 15.6708 4.17832 15.6386C4.33642 15.5462 4.44345 15.379 4.44345 15.1863C4.44345 15.1519 4.43948 15.1182 4.43305 15.0853C4.43116 15.0764 4.42813 15.0683 4.42586 15.0594C4.31883 14.6763 4.21615 14.2916 4.13804 13.9028C3.27175 9.59423 6.17472 5.89853 10.4345 5.89853C14.3471 5.89853 16.9782 8.2824 16.9782 11.8688C16.9782 13.2958 16.3954 14.0068 15.3613 13.9857C15.3596 13.9857 15.3581 13.9851 15.3564 13.9851L15.3522 13.9855C15.3322 13.9851 15.312 13.9862 15.2921 13.9851C15.2897 13.9874 15.2881 13.9898 15.2857 13.9921C15.0204 14.0263 14.8142 14.2463 14.8142 14.514C14.8142 14.7576 14.9842 14.9605 15.214 15.022C15.2208 15.0248 15.2282 15.0275 15.2411 15.0309L15.2443 15.0314C15.2486 15.0322 15.2533 15.0326 15.2577 15.0333C15.269 15.0348 15.2827 15.0361 15.2995 15.0375C15.3184 15.0392 15.3369 15.043 15.3564 15.043C15.3634 15.043 15.3698 15.0413 15.3768 15.0411C15.4863 15.0443 15.6168 15.043 15.6168 15.043C17.315 14.9117 17.9252 13.5316 17.9252 11.5381C17.9252 6.56796 12.4979 3.49366 7.76397 5.33688Z" fill="white"/>
<path fill-rule="evenodd" clip-rule="evenodd" d="M8.01408 3.91791C8.03665 3.91421 8.05687 3.90578 8.07877 3.90039C8.05619 3.90612 8.03429 3.91218 8.01172 3.91825L8.01408 3.91791Z" fill="white"/>
<path fill-rule="evenodd" clip-rule="evenodd" d="M8.44634 3.30005C8.44464 3.29135 8.44161 3.28322 8.43953 3.27471C8.38167 3.04797 8.17308 2.87891 7.92308 2.87891C7.89037 2.87891 7.8586 2.88288 7.82758 2.88836C7.78674 2.8999 7.7474 2.91238 7.70731 2.92429C6.83685 3.18393 6.11541 3.53794 5.37525 3.97118C4.35521 4.56838 3.54319 5.24236 2.68635 6.31781C2.564 6.47136 2.34558 6.67314 2.20129 6.88985C2.12867 6.96928 2.0814 7.06988 2.06854 7.18108C2.03866 7.32593 2.07289 7.47079 2.21547 7.60676C2.22058 7.61205 2.22625 7.61678 2.23155 7.62188C2.25065 7.63909 2.27126 7.65611 2.29414 7.67313C2.2966 7.67502 2.29906 7.67635 2.30152 7.67824C2.8781 8.09408 3.2444 7.30835 3.5014 6.98403C4.85294 5.27923 6.15891 4.39062 8.01518 3.91086C8.02785 3.90765 8.04014 3.90405 8.053 3.90084C8.10349 3.88817 8.1519 3.87001 8.19577 3.84448C8.35141 3.75352 8.45674 3.58919 8.45674 3.39952C8.45674 3.36548 8.45277 3.33238 8.44634 3.30005Z" fill="white"/>
<path fill-rule="evenodd" clip-rule="evenodd" d="M18.4525 6.51374C18.4268 6.4676 18.396 6.42467 18.3578 6.38817C16.3839 3.87022 13.7464 2.65219 10.5857 2.58789C10.4456 2.58978 10.0914 2.58789 10.0502 2.58789C9.75119 2.58789 9.50781 2.82522 9.50781 3.11682C9.50781 3.40861 9.75119 3.64575 10.0502 3.64575C12.8317 3.50127 15.6337 4.62495 17.528 7.05213C17.5341 7.06139 17.542 7.0699 17.5486 7.0786C17.6473 7.20701 17.803 7.29135 17.9798 7.29135C18.278 7.29135 18.5202 7.05477 18.5202 6.76412C18.5202 6.67316 18.4943 6.58844 18.4525 6.51374Z" fill="white"/>
<path fill-rule="evenodd" clip-rule="evenodd" d="M15.6946 11.8709C15.6863 11.7043 15.6629 11.5376 15.6322 11.3732C15.3767 10.0041 14.5863 8.76563 13.5284 7.99805C13.6188 8.07066 13.6858 8.17051 13.7149 8.28492C13.717 8.294 13.7204 8.30232 13.7223 8.3114C13.7287 8.34468 13.7327 8.3791 13.7327 8.41427C13.7327 8.61056 13.6237 8.78076 13.4628 8.87474C13.4064 8.90765 13.3442 8.93185 13.2773 8.94339C13.2459 8.94887 13.2137 8.95285 13.1807 8.95285C13.0706 8.95285 12.9689 8.9207 12.8828 8.86642C13.7506 9.58314 14.484 10.7707 14.6135 11.9668C14.6551 12.3505 14.6946 12.7425 15.1827 12.7268C15.7368 12.7093 15.7141 12.2639 15.6946 11.8709Z" fill="white"/>
<path fill-rule="evenodd" clip-rule="evenodd" d="M13.2779 8.9427C13.3449 8.93097 13.4069 8.90695 13.4632 8.87405C13.6244 8.78006 13.7333 8.60987 13.7333 8.41358C13.7333 8.3784 13.7293 8.34398 13.7227 8.31051C13.7208 8.30162 13.7176 8.2933 13.7155 8.28423C13.6862 8.16982 13.6194 8.06997 13.5289 7.99735C13.5219 7.99225 13.5149 7.98695 13.5079 7.98203C13.4165 7.91528 13.304 7.875 13.1811 7.875C12.8766 7.875 12.6289 8.11649 12.6289 8.41358C12.6289 8.44724 12.6329 8.47976 12.6391 8.51153C12.6459 8.54765 12.6561 8.58245 12.6699 8.61573C12.6972 8.68078 12.7378 8.73884 12.7872 8.78838C12.8195 8.81335 12.8515 8.83925 12.8833 8.86573C12.9693 8.92 13.0712 8.95215 13.1811 8.95215C13.2144 8.95215 13.2463 8.94818 13.2779 8.9427Z" fill="white"/>
<path fill-rule="evenodd" clip-rule="evenodd" d="M12.9563 8.92492C12.8994 8.87775 12.8424 8.83159 12.7852 8.78711C12.837 8.839 12.8937 8.8855 12.9563 8.92492Z" fill="white"/>
<path fill-rule="evenodd" clip-rule="evenodd" d="M11.0162 9.47565C11.0145 9.4753 11.0135 9.47496 11.0117 9.47461C11.0135 9.4753 11.0152 9.47565 11.0169 9.47635L11.0162 9.47565Z" fill="white"/>
<path fill-rule="evenodd" clip-rule="evenodd" d="M13.1991 18.1379C12.8998 18.0324 12.5883 17.9497 12.3043 17.8134C10.0132 16.7132 8.78065 14.9131 8.66246 12.4256C8.6097 11.3134 9.34702 10.533 10.3777 10.4933L10.3926 10.4882C10.4552 10.4781 10.5142 10.4575 10.5679 10.4286C10.7337 10.3395 10.8476 10.1695 10.8476 9.97229C10.8476 9.77637 10.7353 9.60731 10.5713 9.51768C10.4989 9.47834 10.4174 9.45414 10.3296 9.45111C10.3234 9.45092 10.3175 9.44922 10.3113 9.44922C10.2992 9.44922 10.2876 9.45206 10.2757 9.45281C8.89638 9.53942 7.78557 10.5277 7.60441 11.8698C7.19669 14.8928 9.82433 18.514 12.8635 19.1207C13.2097 19.1899 13.5229 19.1714 13.6293 18.7824C13.7229 18.4409 13.5104 18.2476 13.1991 18.1379Z" fill="white"/>
<path fill-rule="evenodd" clip-rule="evenodd" d="M13.2121 11.7053C13.207 11.6639 13.1964 11.6245 13.1822 11.5865C13.0818 11.2002 12.926 10.7478 12.7024 10.4413C12.6858 10.415 12.6667 10.3904 12.6457 10.3673C12.6421 10.363 12.6389 10.3579 12.6353 10.3537L12.6323 10.3515C12.5336 10.2509 12.3953 10.1875 12.2416 10.1875C11.9424 10.1875 11.6992 10.4248 11.6992 10.7164C11.6992 10.772 11.7104 10.8244 11.7268 10.8747L11.7247 10.8768C11.7247 10.8768 11.728 10.8836 11.7334 10.8959C11.7403 10.9142 11.7482 10.9318 11.7569 10.949C11.8133 11.0795 11.9377 11.3866 12.0841 11.8615C12.092 11.9103 12.1058 11.957 12.126 12.0005C12.2157 12.1941 12.4142 12.3295 12.6457 12.3295C12.7454 12.3295 12.8375 12.3025 12.919 12.2586C13.0956 12.1639 13.2168 11.9827 13.2168 11.7724C13.2168 11.7497 13.2149 11.7274 13.2121 11.7053Z" fill="white"/>
<path fill-rule="evenodd" clip-rule="evenodd" d="M9.8555 18.8925L9.85607 18.8918C9.85417 18.8908 9.85247 18.8899 9.85058 18.8887C9.8451 18.8851 9.83905 18.8821 9.83337 18.8789C9.33054 18.6017 8.49563 17.7861 8.44249 17.7456C8.44193 17.7448 8.44136 17.7443 8.44079 17.7437C8.40165 17.7142 8.3591 17.6883 8.31088 17.6698C8.0327 17.5627 7.71708 17.6962 7.6074 17.9678C7.54689 18.1174 7.56334 18.2773 7.63558 18.4092L7.64238 18.4351C8.31466 19.3208 9.38179 19.7613 9.38179 19.7613C9.64256 19.8615 9.93814 19.7363 10.041 19.482C10.1293 19.2635 10.0459 19.0203 9.8555 18.8925Z" fill="#E82227"/>
<path fill-rule="evenodd" clip-rule="evenodd" d="M9.16322 7.31055C9.07642 7.31055 8.91889 7.36785 8.91889 7.36785C6.68214 8.02291 5.17232 10.0386 5.19558 12.4832C5.24077 14.0123 5.91248 15.8718 6.35745 16.6494C6.37806 16.6908 6.41399 16.7513 6.43612 16.788C6.44595 16.8044 6.45332 16.8164 6.45503 16.819C6.46505 16.8372 6.47621 16.8566 6.48755 16.8763C6.58589 17.0127 6.74814 17.1027 6.93176 17.1027C7.02651 17.1027 7.11444 17.0768 7.19216 17.035C7.36047 16.9448 7.47582 16.7723 7.47582 16.5718C7.47582 16.4884 7.45483 16.4107 7.41928 16.3406C7.40831 16.3222 7.3981 16.3037 7.38713 16.2853C6.63127 15.0248 6.24777 13.6335 6.29656 12.0923C6.35329 10.2982 7.63165 8.84628 9.26704 8.3582C9.29957 8.35215 9.33077 8.3425 9.36102 8.33078C9.40944 8.31754 9.55278 8.22734 9.56658 8.18951C9.65206 8.0961 9.70539 7.97431 9.70539 7.83948C9.70539 7.54788 9.4622 7.31055 9.16322 7.31055Z" fill="#00AC75"/>
<path fill-rule="evenodd" clip-rule="evenodd" d="M7.38672 16.2852C7.40626 16.3178 7.42446 16.3509 7.444 16.3835C7.42681 16.3495 7.40795 16.3168 7.38672 16.2852Z" fill="white"/>
<path fill-rule="evenodd" clip-rule="evenodd" d="M6.4375 16.7871C6.46277 16.8427 6.49343 16.8953 6.52915 16.9445C6.50893 16.9098 6.48905 16.8747 6.47086 16.8427C6.46816 16.838 6.45502 16.8164 6.4375 16.7871Z" fill="white"/>
<path fill-rule="evenodd" clip-rule="evenodd" d="M15.7675 16.2276C15.6937 16.1874 15.6109 16.1628 15.5214 16.1599C15.4908 16.163 15.4602 16.1649 15.4297 16.1675C13.1058 16.3648 11.2177 14.8426 11.0164 12.5766C10.9816 12.1834 10.9942 11.7241 10.4415 11.7642C9.93183 11.8014 9.92748 12.3016 9.95376 12.6976C10.1234 15.2568 12.3287 17.235 15.0023 17.263C15.1761 17.263 15.3522 17.2462 15.5282 17.222C15.5628 17.2172 15.5975 17.2125 15.6322 17.207C15.6786 17.1953 15.7228 17.1781 15.7641 17.1558C15.9331 17.0652 16.049 16.8918 16.049 16.6906C16.049 16.4911 15.9346 16.3188 15.7675 16.2276Z" fill="white"/>
</g>
<defs>
<clipPath id="clip0_56385_24783">
<rect width="20" height="20" fill="white" transform="translate(0.5)"/>
</clipPath>
</defs>
</svg>
